<svg width="256" height="256" viewBox="0 0 256 256" fill="none" xmlns="http://www.w3.org/2000/svg">
<path d="M65.056 127.504C66.784 127.168 68.488 127 70.168 127C73.096 127 75.472 127.504 77.296 128.512C79.168 129.472 80.512 130.72 81.328 132.256C82.144 133.744 82.552 135.304 82.552 136.936C82.552 140.728 81.304 143.968 78.808 146.656C76.312 149.296 72.928 151.312 68.656 152.704C64.384 154.048 59.632 154.72 54.4 154.72C39.232 154.72 29.416 149.44 24.952 138.88L28.984 137.872C31.96 137.152 34.48 136.48 36.544 135.856C38.656 135.184 40.504 134.44 42.088 133.624C43.048 136.024 44.416 137.752 46.192 138.808C48.016 139.816 50.512 140.32 53.68 140.32C57.04 140.32 59.776 139.936 61.888 139.168C64 138.4 65.056 137.248 65.056 135.712C65.056 134.896 64.648 134.272 63.832 133.84C63.016 133.408 61.72 133.12 59.944 132.976C58.168 132.784 55.672 132.688 52.456 132.688H46.984V120.088H50.296C53.944 120.088 56.92 119.944 59.224 119.656C61.528 119.32 62.68 118.624 62.68 117.568C62.68 116.368 62.056 115.408 60.808 114.688C59.608 113.92 57.712 113.536 55.12 113.536C51.76 113.536 49.024 114.232 46.912 115.624C44.848 117.016 43.24 119.032 42.088 121.672C36.952 119.608 31.48 118.144 25.672 117.28C27.976 112.096 31.504 108.088 36.256 105.256C41.056 102.424 47.224 101.008 54.76 101.008C59.656 101.008 64.048 101.656 67.936 102.952C71.872 104.2 74.944 105.952 77.152 108.208C79.408 110.464 80.536 112.984 80.536 115.768C80.536 117.4 80.152 118.864 79.384 120.16C78.616 121.408 77.104 122.656 74.848 123.904C72.592 125.104 69.328 126.304 65.056 127.504ZM124.158 127.504C125.886 127.168 127.59 127 129.27 127C132.198 127 134.574 127.504 136.398 128.512C138.27 129.472 139.614 130.72 140.43 132.256C141.246 133.744 141.654 135.304 141.654 136.936C141.654 140.728 140.406 143.968 137.91 146.656C135.414 149.296 132.03 151.312 127.758 152.704C123.486 154.048 118.734 154.72 113.502 154.72C98.3339 154.72 88.5179 149.44 84.0539 138.88L88.0859 137.872C91.0619 137.152 93.5819 136.48 95.6459 135.856C97.7579 135.184 99.6059 134.44 101.19 133.624C102.15 136.024 103.518 137.752 105.294 138.808C107.118 139.816 109.614 140.32 112.782 140.32C116.142 140.32 118.878 139.936 120.99 139.168C123.102 138.4 124.158 137.248 124.158 135.712C124.158 134.896 123.75 134.272 122.934 133.84C122.118 133.408 120.822 133.12 119.046 132.976C117.27 132.784 114.774 132.688 111.558 132.688H106.086V120.088H109.398C113.046 120.088 116.022 119.944 118.326 119.656C120.63 119.32 121.782 118.624 121.782 117.568C121.782 116.368 121.158 115.408 119.91 114.688C118.71 113.92 116.814 113.536 114.222 113.536C110.862 113.536 108.126 114.232 106.014 115.624C103.95 117.016 102.342 119.032 101.19 121.672C96.0539 119.608 90.5819 118.144 84.7739 117.28C87.0779 112.096 90.6059 108.088 95.3579 105.256C100.158 102.424 106.326 101.008 113.862 101.008C118.758 101.008 123.15 101.656 127.038 102.952C130.974 104.2 134.046 105.952 136.254 108.208C138.51 110.464 139.638 112.984 139.638 115.768C139.638 117.4 139.254 118.864 138.486 120.16C137.718 121.408 136.206 122.656 133.95 123.904C131.694 125.104 128.43 126.304 124.158 127.504ZM155.324 127.576C152.3 127.576 149.708 127.024 147.548 125.92C145.388 124.768 143.732 123.208 142.58 121.24C141.476 119.272 140.924 117.064 140.924 114.616C140.924 112.216 141.476 110.032 142.58 108.064C143.732 106.096 145.388 104.56 147.548 103.456C149.708 102.304 152.3 101.728 155.324 101.728C158.348 101.728 160.94 102.304 163.1 103.456C165.26 104.56 166.892 106.096 167.996 108.064C169.148 110.032 169.724 112.216 169.724 114.616C169.724 117.064 169.148 119.272 167.996 121.24C166.892 123.208 165.26 124.768 163.1 125.92C160.94 127.024 158.348 127.576 155.324 127.576ZM155.324 119.296C156.62 119.296 157.724 118.888 158.636 118.072C159.596 117.256 160.076 116.08 160.076 114.544C160.076 113.056 159.596 111.952 158.636 111.232C157.724 110.464 156.62 110.08 155.324 110.08C153.932 110.08 152.78 110.464 151.868 111.232C151.004 111.952 150.572 113.056 150.572 114.544C150.572 116.08 151.028 117.256 151.94 118.072C152.852 118.888 153.98 119.296 155.324 119.296ZM168.998 147.808C170.63 145.36 171.974 143.08 173.03 140.968C174.134 138.856 175.19 136.408 176.198 133.624C179.606 135.592 183.566 137.128 188.078 138.232C192.59 139.336 196.79 139.888 200.678 139.888C204.662 139.888 207.47 139.552 209.102 138.88C210.734 138.16 211.55 137.392 211.55 136.576C211.55 133.648 207.086 132.184 198.158 132.184C188.366 132.184 181.262 131.176 176.846 129.16C172.43 127.096 170.222 123.784 170.222 119.224C170.222 112.744 172.91 107.968 178.286 104.896C183.662 101.824 190.646 100.288 199.238 100.288C204.23 100.288 209.342 100.936 214.574 102.232C219.854 103.48 224.606 105.208 228.83 107.416C227.438 110.584 225.974 114.448 224.438 119.008C224.15 119.968 223.91 120.688 223.718 121.168C221.27 119.2 217.574 117.568 212.63 116.272C207.686 114.928 203.318 114.256 199.526 114.256C194.966 114.256 191.894 114.568 190.31 115.192C188.726 115.768 187.934 116.632 187.934 117.784C187.934 118.936 189.014 119.872 191.174 120.592C193.382 121.264 196.55 121.6 200.678 121.6C210.854 121.6 218.246 122.776 222.854 125.128C227.462 127.432 229.766 130.984 229.766 135.784C229.766 142.504 227.318 147.352 222.422 150.328C217.526 153.256 210.11 154.72 200.174 154.72C194.846 154.72 189.422 154.144 183.902 152.992C178.382 151.792 173.414 150.064 168.998 147.808Z" fill="white"/>
<rect x="4.5" y="4.5" width="247" height="247" rx="40.5" stroke="white" stroke-width="9"/>
</svg>
